<?xml version="1.0" standalone="no"?>
<!DOCTYPE svg PUBLIC "-//W3C//DTD SVG 20010904//EN"
 "http://www.w3.org/TR/2001/REC-SVG-20010904/DTD/svg10.dtd">
<svg version="1.0" xmlns="http://www.w3.org/2000/svg"
 width="512.000000pt" height="512.000000pt" viewBox="0 0 512.000000 512.000000"
 preserveAspectRatio="xMidYMid meet">
<metadata>
Created by potrace 1.14, written by Peter Selinger 2001-2017
</metadata>
<g transform="translate(0.000000,512.000000) scale(0.100000,-0.100000)"
fill="#000000" stroke="none">
<path d="M523 4945 c-77 -21 -149 -61 -206 -113 -68 -65 -102 -117 -131 -204
l-25 -73 0 -1990 c0 -2160 -3 -2033 55 -2147 36 -71 123 -159 193 -197 121
-64 64 -61 1297 -59 l1119 3 60 24 c169 69 283 208 309 376 2 17 5 454 5 973
l1 942 329 0 c181 0 337 3 346 6 43 17 45 42 45 469 l0 405 192 -2 192 -3 0
-39 0 -38 56 5 c226 23 411 145 523 347 51 93 71 176 72 300 0 104 -10 165
-36 233 -90 230 -299 395 -536 425 -56 7 -57 8 -90 64 -43 73 -143 174 -215
216 -31 18 -89 45 -130 60 -63 22 -89 26 -193 26 -105 0 -130 -3 -198 -27
-103 -36 -192 -94 -267 -173 l-61 -66 -45 23 c-25 13 -78 56 -118 95 -77 76
-142 115 -229 139 -77 20 -2237 20 -2314 0z m2917 -1785 l0 -200 -120 0 -120
0 0 160 0 160 40 0 40 0 0 40 0 40 80 0 80 0 0 -200z m320 -160 l0 -360 -320
0 -320 0 0 79 0 80 221 3 220 3 19 25 c18 23 20 44 20 278 l0 252 80 0 80 0 0
-360z"/>
</g>
</svg>
